<svg xmlns="http://www.w3.org/2000/svg" version="1.1" xmlns:xlink="http://www.w3.org/1999/xlink" xmlns:svgjs="http://svgjs.dev/svgjs" width="1500" height="522" viewBox="0 0 1500 522"><g transform="matrix(1,0,0,1,-0.9088903580105807,0.48458486922282873)"><svg viewBox="0 0 396 138" data-background-color="#ffffff" preserveAspectRatio="xMidYMid meet" height="522" width="1500" xmlns="http://www.w3.org/2000/svg" xmlns:xlink="http://www.w3.org/1999/xlink"><g id="tight-bounds" transform="matrix(1,0,0,1,0.23994705451480058,-0.12810864358763752)"><svg viewBox="0 0 395.52 138.25593921351634" height="138.25593921351634" width="395.52"><g><svg viewBox="0 0 646.1404773894863 225.86154572550882" height="138.25593921351634" width="395.52"><g transform="matrix(1,0,0,1,250.62047738948624,67.14999001728191)"><svg viewBox="0 0 395.52 91.56156569094499" height="91.56156569094499" width="395.52"><g id="textblocktransform"><svg viewBox="0 0 395.52 91.56156569094499" height="91.56156569094499" width="395.52" id="textblock"><g><svg viewBox="0 0 395.52 52.43847672778561" height="52.43847672778561" width="395.52"><g transform="matrix(1,0,0,1,0,0)"><svg width="395.52" viewBox="4.5 -37 283.08 37.6" height="52.43847672778561" data-palette-color="#ee3e38"><g class="wordmark-text-0" data-fill-palette-color="primary" id="text-0"><path d="M29.55-2.8L26.25 0.6 9.25-16.1 9.25 0 4.5 0 4.5-35 9.25-35 9.25-19.05 24.15-35.15 27.35-32.2 13.7-18 29.55-2.8ZM44.45 0.6L44.45 0.6Q38.85 0.6 35.57-2.98 32.3-6.55 32.3-13L32.3-13Q32.3-16.9 33.77-19.98 35.25-23.05 37.9-24.83 40.55-26.6 44.05-26.6L44.05-26.6Q47.8-26.6 50.27-24.98 52.75-23.35 54-20.6 55.25-17.85 55.25-14.55L55.25-14.55Q55.25-12.8 55.1-11.15L55.1-11.15 36.9-11.15Q37.35-7.5 39.45-5.45 41.55-3.4 45-3.4L45-3.4Q47.25-3.4 49.05-3.88 50.85-4.35 52.5-5.1L52.5-5.1 53.55-1.25Q51.75-0.45 49.5 0.08 47.25 0.6 44.45 0.6ZM36.85-14.8L36.85-14.8 51.1-14.8Q51.1-18.6 49.2-20.65 47.3-22.7 43.95-22.7L43.95-22.7Q41.05-22.7 39.15-20.68 37.25-18.65 36.85-14.8ZM82.3-2.5L79.2 0.5 65.75-13.35 65.75 0 61.25 0 61.25-37 65.75-37 65.75-15.85 77.5-26.5 80.09-23.65 70.05-14.75 82.3-2.5ZM97.19 0.6L97.19 0.6Q91.59 0.6 88.32-2.98 85.04-6.55 85.04-13L85.04-13Q85.04-16.9 86.52-19.98 87.99-23.05 90.64-24.83 93.29-26.6 96.79-26.6L96.79-26.6Q100.54-26.6 103.02-24.98 105.49-23.35 106.74-20.6 107.99-17.85 107.99-14.55L107.99-14.55Q107.99-12.8 107.84-11.15L107.84-11.15 89.64-11.15Q90.09-7.5 92.19-5.45 94.29-3.4 97.74-3.4L97.74-3.4Q99.99-3.4 101.79-3.88 103.59-4.35 105.24-5.1L105.24-5.1 106.29-1.25Q104.49-0.45 102.24 0.08 99.99 0.6 97.19 0.6ZM89.59-14.8L89.59-14.8 103.84-14.8Q103.84-18.6 101.94-20.65 100.04-22.7 96.69-22.7L96.69-22.7Q93.79-22.7 91.89-20.68 89.99-18.65 89.59-14.8Z" fill="#ee3e38" data-fill-palette-color="primary"></path><path d="M131.99 0L127.49 0 127.49-35 134.14-35 143.84-12.85 153.39-35 160.19-35 160.19 0 155.44 0 155.44-28.95 146.09-7.9 141.39-7.9 131.99-28.95 131.99 0ZM178.64 0.6L178.64 0.6Q175.39 0.6 172.74-1.05 170.09-2.7 168.51-5.73 166.94-8.75 166.94-12.85L166.94-12.85Q166.94-16.75 168.51-19.85 170.09-22.95 172.86-24.78 175.64-26.6 179.24-26.6L179.24-26.6Q181.49-26.6 183.31-25.83 185.14-25.05 186.49-23.9L186.49-23.9 186.49-26 190.59-26 190.59-6.3Q190.59-4.4 191.51-3.83 192.44-3.25 193.54-3.25L193.54-3.25 192.59 0.25Q187.79 0.25 186.79-3.65L186.79-3.65Q185.64-2.05 183.66-0.73 181.69 0.6 178.64 0.6ZM179.64-3.4L179.64-3.4Q181.54-3.4 183.24-4.33 184.94-5.25 186.09-6.65L186.09-6.65 186.09-20.6Q184.74-21.55 183.11-22.13 181.49-22.7 179.69-22.7L179.69-22.7Q177.29-22.7 175.46-21.48 173.64-20.25 172.59-18.07 171.54-15.9 171.54-13L171.54-13Q171.54-10.2 172.59-8.03 173.64-5.85 175.49-4.63 177.34-3.4 179.64-3.4ZM204.03 0L199.53 0 199.53-26 203.88-26 203.88-20.35Q204.53-22 205.63-23.43 206.73-24.85 208.38-25.73 210.03-26.6 212.23-26.6L212.23-26.6Q212.98-26.6 213.73-26.53 214.48-26.45 214.98-26.3L214.98-26.3 213.63-21.65Q212.68-22.05 211.38-22.05L211.38-22.05Q209.53-22.05 207.86-21 206.18-19.95 205.11-17.75 204.03-15.55 204.03-12.15L204.03-12.15 204.03 0ZM240.53-2.5L237.43 0.5 223.98-13.35 223.98 0 219.48 0 219.48-37 223.98-37 223.98-15.85 235.73-26.5 238.33-23.65 228.28-14.75 240.53-2.5ZM255.43 0.6L255.43 0.6Q249.83 0.6 246.55-2.98 243.28-6.55 243.28-13L243.28-13Q243.28-16.9 244.75-19.98 246.23-23.05 248.88-24.83 251.53-26.6 255.03-26.6L255.03-26.6Q258.78-26.6 261.25-24.98 263.73-23.35 264.98-20.6 266.23-17.85 266.23-14.55L266.23-14.55Q266.23-12.8 266.08-11.15L266.08-11.15 247.88-11.15Q248.33-7.5 250.43-5.45 252.53-3.4 255.98-3.4L255.98-3.4Q258.23-3.4 260.03-3.88 261.83-4.35 263.48-5.1L263.48-5.1 264.53-1.25Q262.73-0.45 260.48 0.08 258.23 0.6 255.43 0.6ZM247.83-14.8L247.83-14.8 262.08-14.8Q262.08-18.6 260.18-20.65 258.28-22.7 254.93-22.7L254.93-22.7Q252.03-22.7 250.13-20.68 248.23-18.65 247.83-14.8ZM281.33 0.6L281.33 0.6Q277.58 0.6 275.4-1.88 273.23-4.35 273.23-8.95L273.23-8.95 273.23-21.15 268.73-21.15 268.73-25.05 273.33-25.05 274.28-33.25 277.73-33.25 277.73-25.05 284.93-25.05 284.93-21.15 277.73-21.15 277.73-8.6Q277.73-5.7 278.95-4.55 280.18-3.4 281.88-3.4L281.88-3.4Q283.13-3.4 284.25-3.8 285.38-4.2 286.33-4.75L286.33-4.75 287.58-1.15Q286.58-0.55 284.88 0.03 283.18 0.6 281.33 0.6Z" fill="#2534d2" data-fill-palette-color="secondary"></path></g></svg></g></svg></g><g transform="matrix(1,0,0,1,0,64.81794255977432)"><svg viewBox="0 0 395.52 26.74362313117066" height="26.74362313117066" width="395.52"><g transform="matrix(1,0,0,1,0,0)"><svg width="395.52" viewBox="3 -39.65 779.30065915728 50.5" height="26.74362313117066" data-palette-color="#2534d2"><g class="slogan-text-1" data-fill-palette-color="secondary" id="text-1"><path d="M17.05-18.3Q20.4-17.55 22.33-15.63 24.25-13.7 24.25-9.9L24.25-9.9Q24.25-4.9 20.88-2.45 17.5 0 11.7 0L11.7 0 3 0 3-34.55 10.55-34.55Q16.5-34.55 19.75-32.3 23-30.05 23-25.75L23-25.75Q23-22.85 21.38-20.95 19.75-19.05 17.05-18.3L17.05-18.3ZM11.2-29.85L9.35-29.85 9.35-20.3 11.5-20.3Q16.55-20.3 16.55-25.2L16.55-25.2Q16.55-27.65 15.28-28.75 14-29.85 11.2-29.85L11.2-29.85ZM11.75-4.8Q14.65-4.8 16.15-6.03 17.65-7.25 17.65-10.15L17.65-10.15Q17.65-13.05 16.25-14.43 14.85-15.8 11.9-15.8L11.9-15.8 9.35-15.8 9.35-4.8 11.75-4.8ZM48.84-26.45L54.99-26.45 54.99 0 48.84 0 48.84-26.45ZM51.89-39.65Q53.54-39.65 54.56-38.6 55.59-37.55 55.59-35.9L55.59-35.9Q55.59-34.3 54.56-33.25 53.54-32.2 51.89-32.2L51.89-32.2Q50.24-32.2 49.21-33.25 48.19-34.3 48.19-35.9L48.19-35.9Q48.19-37.55 49.21-38.6 50.24-39.65 51.89-39.65L51.89-39.65ZM90.77-27.15Q92.92-27.15 94.67-26.43 96.42-25.7 98.02-24.15L98.02-24.15 95.37-20.65Q94.27-21.55 93.3-21.98 92.32-22.4 91.17-22.4L91.17-22.4Q88.92-22.4 87.77-20.28 86.62-18.15 86.62-13.1L86.62-13.1Q86.62-8.2 87.8-6.2 88.97-4.2 91.17-4.2L91.17-4.2Q92.27-4.2 93.17-4.6 94.07-5 95.27-5.85L95.27-5.85 98.02-2.3Q94.82 0.75 90.87 0.75L90.87 0.75Q85.77 0.75 82.95-2.73 80.12-6.2 80.12-13L80.12-13Q80.12-17.4 81.42-20.6 82.72-23.8 85.15-25.48 87.57-27.15 90.77-27.15L90.77-27.15ZM140.31-26.45L133.31 0.1Q132.01 4.9 129.11 7.65 126.21 10.4 121.36 10.85L121.36 10.85 120.66 6.5Q123.81 5.85 125.39 4.42 126.96 3 127.86 0L127.86 0 125.56 0 118.86-26.45 125.11-26.45 129.51-4.1 134.21-26.45 140.31-26.45ZM173.3-27.15Q175.45-27.15 177.2-26.43 178.95-25.7 180.55-24.15L180.55-24.15 177.9-20.65Q176.8-21.55 175.82-21.98 174.85-22.4 173.7-22.4L173.7-22.4Q171.45-22.4 170.3-20.28 169.15-18.15 169.15-13.1L169.15-13.1Q169.15-8.2 170.32-6.2 171.5-4.2 173.7-4.2L173.7-4.2Q174.8-4.2 175.7-4.6 176.6-5 177.8-5.85L177.8-5.85 180.55-2.3Q177.35 0.75 173.4 0.75L173.4 0.75Q168.3 0.75 165.47-2.73 162.65-6.2 162.65-13L162.65-13Q162.65-17.4 163.95-20.6 165.25-23.8 167.67-25.48 170.1-27.15 173.3-27.15L173.3-27.15ZM209.78 0.75Q207.08 0.75 205.51-0.93 203.93-2.6 203.93-5.4L203.93-5.4 203.93-37.05 210.08-37.7 210.08-5.65Q210.08-5 210.38-4.6 210.68-4.2 211.28-4.2L211.28-4.2Q211.63-4.2 211.96-4.3 212.28-4.4 212.38-4.4L212.38-4.4 213.58-0.2Q211.88 0.75 209.78 0.75L209.78 0.75ZM256.07-13.85Q256.07-13.4 255.92-11.3L255.92-11.3 242.27-11.3Q242.47-7.2 243.7-5.58 244.92-3.95 247.17-3.95L247.17-3.95Q248.72-3.95 249.97-4.48 251.22-5 252.67-6.15L252.67-6.15 255.22-2.65Q251.72 0.75 246.82 0.75L246.82 0.75Q241.62 0.75 238.85-2.85 236.07-6.45 236.07-13L236.07-13Q236.07-19.55 238.72-23.35 241.37-27.15 246.22-27.15L246.22-27.15Q250.87-27.15 253.47-23.78 256.07-20.4 256.07-13.85L256.07-13.85ZM250.07-15.3L250.07-15.65Q250.07-19.4 249.17-21.13 248.27-22.85 246.27-22.85L246.27-22.85Q244.42-22.85 243.45-21.18 242.47-19.5 242.27-15.3L242.27-15.3 250.07-15.3Z" fill="#ee3e38" data-fill-palette-color="primary"></path><path d="M370.041-34.55L372.241 0 366.191 0 365.591-14.6Q365.291-22.6 365.291-26L365.291-26 365.341-28.6 360.591-3.8 354.591-3.8 349.641-28.65Q349.691-27.15 349.691-24.05L349.691-24.05Q349.691-18.8 349.491-14.4L349.491-14.4 348.941 0 342.991 0 345.191-34.55 353.191-34.55 357.691-10.2 361.891-34.55 370.041-34.55ZM414.521-6.4Q414.521-5.1 414.871-4.48 415.221-3.85 416.021-3.45L416.021-3.45 414.771 0.65Q412.721 0.4 411.501-0.45 410.271-1.3 409.671-3.05L409.671-3.05Q407.371 0.75 403.221 0.75L403.221 0.75Q399.921 0.75 397.971-1.48 396.021-3.7 396.021-7.4L396.021-7.4Q396.021-11.7 398.701-13.95 401.371-16.2 406.471-16.2L406.471-16.2 408.521-16.2 408.521-18.05Q408.521-20.55 407.651-21.58 406.771-22.6 404.821-22.6L404.821-22.6Q402.471-22.6 398.971-21.3L398.971-21.3 397.571-25.3Q399.571-26.2 401.721-26.68 403.871-27.15 405.821-27.15L405.821-27.15Q414.521-27.15 414.521-18.35L414.521-18.35 414.521-6.4ZM404.871-3.7Q407.271-3.7 408.521-7L408.521-7 408.521-12.55 407.071-12.55Q404.521-12.55 403.351-11.4 402.171-10.25 402.171-7.85L402.171-7.85Q402.171-5.8 402.871-4.75 403.571-3.7 404.871-3.7L404.871-3.7ZM452.561-27.1Q453.711-27.1 454.611-26.75L454.611-26.75 453.611-20.85Q452.611-21.1 451.761-21.1L451.761-21.1Q449.861-21.1 448.761-19.45 447.661-17.8 447.061-14.55L447.061-14.55 447.061 0 440.911 0 440.911-26.45 446.261-26.45 446.711-21.85Q448.561-27.1 452.561-27.1L452.561-27.1ZM478.051-37.05L484.201-37.7 484.201 0 478.051 0 478.051-37.05ZM491.551-26.45L497.551-26.45 490.551-14.75 498.151 0 491.551 0 484.451-14.45 491.551-26.45ZM540.131-13.85Q540.131-13.4 539.981-11.3L539.981-11.3 526.331-11.3Q526.531-7.2 527.761-5.58 528.981-3.95 531.231-3.95L531.231-3.95Q532.781-3.95 534.031-4.48 535.281-5 536.731-6.15L536.731-6.15 539.281-2.65Q535.781 0.75 530.881 0.75L530.881 0.75Q525.681 0.75 522.911-2.85 520.131-6.45 520.131-13L520.131-13Q520.131-19.55 522.781-23.35 525.431-27.15 530.281-27.15L530.281-27.15Q534.931-27.15 537.531-23.78 540.131-20.4 540.131-13.85L540.131-13.85ZM534.131-15.3L534.131-15.65Q534.131-19.4 533.231-21.13 532.331-22.85 530.331-22.85L530.331-22.85Q528.481-22.85 527.511-21.18 526.531-19.5 526.331-15.3L526.331-15.3 534.131-15.3ZM576.171-5L578.321-1.2Q575.871 0.75 572.571 0.75L572.571 0.75Q569.121 0.75 567.321-1.23 565.521-3.2 565.521-6.6L565.521-6.6 565.521-22 562.421-22 562.421-26.45 565.521-26.45 565.521-32.3 571.671-33.05 571.671-26.45 576.671-26.45 576.071-22 571.671-22 571.671-6.6Q571.671-4.2 573.721-4.2L573.721-4.2Q574.371-4.2 574.871-4.38 575.371-4.55 576.171-5L576.171-5ZM613.661-27.15Q617.561-27.15 619.561-23.58 621.561-20 621.561-13.3L621.561-13.3Q621.561-6.8 619.281-3.03 617.011 0.75 612.961 0.75L612.961 0.75Q609.761 0.75 607.611-2.1L607.611-2.1 607.611 10.15 601.461 10.85 601.461-26.45 606.911-26.45 607.161-23.25Q608.461-25.25 610.061-26.2 611.661-27.15 613.661-27.15L613.661-27.15ZM611.311-3.95Q613.211-3.95 614.211-6.13 615.211-8.3 615.211-13.25L615.211-13.25Q615.211-18.45 614.361-20.5 613.511-22.55 611.711-22.55L611.711-22.55Q609.411-22.55 607.611-19.25L607.611-19.25 607.611-6.45Q609.211-3.95 611.311-3.95L611.311-3.95ZM652.341 0.75Q649.641 0.75 648.071-0.93 646.491-2.6 646.491-5.4L646.491-5.4 646.491-37.05 652.641-37.7 652.641-5.65Q652.641-5 652.941-4.6 653.241-4.2 653.841-4.2L653.841-4.2Q654.191-4.2 654.521-4.3 654.841-4.4 654.941-4.4L654.941-4.4 656.141-0.2Q654.441 0.75 652.341 0.75L652.341 0.75ZM696.681-6.4Q696.681-5.1 697.031-4.48 697.381-3.85 698.181-3.45L698.181-3.45 696.931 0.65Q694.881 0.4 693.661-0.45 692.431-1.3 691.831-3.05L691.831-3.05Q689.531 0.75 685.381 0.75L685.381 0.75Q682.081 0.75 680.131-1.48 678.181-3.7 678.181-7.4L678.181-7.4Q678.181-11.7 680.861-13.95 683.531-16.2 688.631-16.2L688.631-16.2 690.681-16.2 690.681-18.05Q690.681-20.55 689.811-21.58 688.931-22.6 686.981-22.6L686.981-22.6Q684.631-22.6 681.131-21.3L681.131-21.3 679.731-25.3Q681.731-26.2 683.881-26.68 686.031-27.15 687.981-27.15L687.981-27.15Q696.681-27.15 696.681-18.35L696.681-18.35 696.681-6.4ZM687.031-3.7Q689.431-3.7 690.681-7L690.681-7 690.681-12.55 689.231-12.55Q686.681-12.55 685.511-11.4 684.331-10.25 684.331-7.85L684.331-7.85Q684.331-5.8 685.031-4.75 685.731-3.7 687.031-3.7L687.031-3.7ZM732.571-27.15Q734.721-27.15 736.471-26.43 738.221-25.7 739.821-24.15L739.821-24.15 737.171-20.65Q736.071-21.55 735.091-21.98 734.121-22.4 732.971-22.4L732.971-22.4Q730.721-22.4 729.571-20.28 728.421-18.15 728.421-13.1L728.421-13.1Q728.421-8.2 729.591-6.2 730.771-4.2 732.971-4.2L732.971-4.2Q734.071-4.2 734.971-4.6 735.871-5 737.071-5.85L737.071-5.85 739.821-2.3Q736.621 0.75 732.671 0.75L732.671 0.75Q727.571 0.75 724.741-2.73 721.921-6.2 721.921-13L721.921-13Q721.921-17.4 723.221-20.6 724.521-23.8 726.941-25.48 729.371-27.15 732.571-27.15L732.571-27.15ZM782.301-13.85Q782.301-13.4 782.151-11.3L782.151-11.3 768.501-11.3Q768.701-7.2 769.931-5.58 771.151-3.95 773.401-3.95L773.401-3.95Q774.951-3.95 776.201-4.48 777.451-5 778.901-6.15L778.901-6.15 781.451-2.65Q777.951 0.75 773.051 0.75L773.051 0.75Q767.851 0.75 765.081-2.85 762.301-6.45 762.301-13L762.301-13Q762.301-19.55 764.951-23.35 767.601-27.15 772.451-27.15L772.451-27.15Q777.101-27.15 779.701-23.78 782.301-20.4 782.301-13.85L782.301-13.85ZM776.301-15.3L776.301-15.65Q776.301-19.4 775.401-21.13 774.501-22.85 772.501-22.85L772.501-22.85Q770.651-22.85 769.681-21.18 768.701-19.5 768.501-15.3L768.501-15.3 776.301-15.3Z" fill="#2534d2" data-fill-palette-color="secondary"></path></g></svg></g></svg></g></svg></g></svg></g><g><svg viewBox="0 0 225.86154572550882 225.86154572550882" height="225.86154572550882" width="225.86154572550882"><g><svg></svg></g><g id="icon-0"><svg viewBox="0 0 225.86154572550882 225.86154572550882" height="225.86154572550882" width="225.86154572550882"><g><path d="M0 112.931c0-62.37 50.561-112.931 112.931-112.931 62.37 0 112.931 50.561 112.931 112.931 0 62.37-50.561 112.931-112.931 112.931-62.37 0-112.931-50.561-112.931-112.931zM112.931 221.133c59.758 0 108.202-48.444 108.202-108.202 0-59.758-48.444-108.202-108.202-108.202-59.758 0-108.202 48.444-108.202 108.202 0 59.758 48.444 108.202 108.202 108.202z" data-fill-palette-color="accent" fill="#2c20de" stroke="transparent"></path></g><g transform="matrix(1,0,0,1,44.895498328591515,74.31073640643307)"><svg viewBox="0 0 136.0705490683258 77.24007291264269" height="77.24007291264269" width="136.0705490683258"><g><svg version="1.0" xmlns="http://www.w3.org/2000/svg" xmlns:xlink="http://www.w3.org/1999/xlink" x="0" y="0" viewBox="0 0.0002750529008780411 100 56.764724947099126" enable-background="new 0 0 100 56.765" xml:space="preserve" width="136.0705490683258" height="77.24007291264269" class="icon-cg-0" data-fill-palette-color="accent" id="cg-0"><path d="M81.729 20.231c-3.268 0-6.331 0.861-8.984 2.365l-6.078-9.272 1.912-3.769h3.035c0.824 0 2.104-0.652 2.104-2.138-0.269-2.368-2.349-2.47-5.647-1.186-5.413 0-8.169 0.574-8.169 3.324h6.216l-1.055 2.076h-30.01c0.901-2.181 1.759-4.389 2.549-6.634-1.556 0-3.31-0.096-3.31-1.357 0-1.232 1.088-1.403 1.898-1.446h10.794V0.001H36.191c-2.305-0.031-4.167 0.931-4.167 3.119 0 1.625 0.576 3.098 2.894 3.719-2.913 7.291-5.388 12.082-7.176 16.045-2.764-1.682-6.006-2.652-9.478-2.652C8.175 20.231 0 28.413 0 38.502 0 48.59 8.175 56.765 18.264 56.765c10.088 0 18.27-8.175 18.27-18.263 0-5.851-2.752-11.055-7.031-14.399 1.371-2.97 2.739-5.946 4.05-8.95l13.699 19.244c-1.333 1.204-2.172 2.949-2.172 4.887 0 3.38 2.551 6.166 5.832 6.537v2.652H49.15v1.775h5.017v-1.775h-1.762V45.82c3.281-0.371 5.832-3.157 5.832-6.537 0-0.037 0.001-0.073 0-0.11h5.243c0.353 9.777 8.386 17.592 18.249 17.592C91.818 56.765 100 48.59 100 38.502 100 28.413 91.818 20.231 81.729 20.231zM33.546 38.502c0 8.437-6.846 15.275-15.282 15.275-8.437 0-15.276-6.839-15.276-15.275 0-8.438 6.839-15.276 15.276-15.276 3.027 0 5.849 0.886 8.224 2.405-1.058 2.291-2.046 4.386-3.091 6.648-0.004 0.009-0.01 0.018-0.014 0.027-1.039 1.766-2.397 3.047-3.776 4.174-0.385-0.257-0.846-0.412-1.343-0.412-1.341 0-2.426 1.092-2.426 2.434 0 1.34 1.085 2.426 2.426 2.426 1.341 0 2.433-1.086 2.433-2.426 0-0.023-0.006-0.047-0.007-0.068 1.587-1.266 3.32-2.828 4.64-5.113l0.027-0.048 0.021-0.041c0.918-2.121 1.869-4.222 2.83-6.318C31.471 29.714 33.546 33.864 33.546 38.502zM72.89 26.049l7.072 10.793c-0.154 0.165-0.287 0.353-0.391 0.556H66.502C66.837 32.713 69.277 28.618 72.89 26.049zM34.485 13.405h29.68L54.133 33.184c-0.543-0.221-1.124-0.37-1.728-0.438v-2.652h1.762v-1.775H49.15v1.775h1.761v2.652c-0.78 0.088-1.519 0.32-2.193 0.658L34.485 13.405zM51.658 44.607c-2.941 0-5.325-2.383-5.325-5.324 0-2.942 2.384-5.325 5.325-5.325 2.941 0 5.325 2.383 5.325 5.325C56.983 42.225 54.6 44.607 51.658 44.607zM57.963 37.398c-0.356-1.195-1.047-2.253-1.96-3.057l9.738-19.196 5.503 8.395c-4.421 3.107-7.402 8.128-7.743 13.857H57.963zM81.729 53.777c-8.212 0-14.904-6.479-15.255-14.604h12.925c0.293 1.013 1.224 1.755 2.33 1.755 1.341 0 2.433-1.086 2.433-2.426 0-1.342-1.092-2.434-2.433-2.434-0.051 0-0.101 0.004-0.15 0.008L74.39 25.104c2.178-1.195 4.681-1.877 7.34-1.877 8.438 0 15.282 6.838 15.282 15.276C97.012 46.938 90.167 53.777 81.729 53.777z" fill="#2c20de" data-fill-palette-color="accent"></path><path d="M51.658 34.424c-2.682 0-4.858 2.177-4.858 4.859 0 2.682 2.177 4.858 4.858 4.858s4.853-2.177 4.853-4.858C56.511 36.601 54.34 34.424 51.658 34.424zM51.658 40.112c-0.459 0-0.836-0.37-0.836-0.829 0-0.46 0.377-0.829 0.836-0.829 0.46 0 0.829 0.369 0.829 0.829C52.487 39.742 52.118 40.112 51.658 40.112z" fill="#2c20de" data-fill-palette-color="accent"></path></svg></g></svg></g></svg></g></svg></g></svg></g><defs></defs></svg><rect width="395.52" height="138.25593921351634" fill="none" stroke="none" visibility="hidden"></rect></g></svg></g></svg>